# xmcd
#
# Track frame offsets: 
#        150
#        22460
#        49875
#        65625
#        85985
#        111375
#        136460
#        158850
#        180600
#        197775
#        221210
#
# Disc length: 3238 seconds
#
# Revision: 0
# Processed by: cddbd v1.5.2PL0 Copyright (c) Steve Scherf et al.
# Submitted via: ExactAudioCopy v0.90b3
#
DISCID=b00ca40b
DTITLE=Tim "Too Slim" Langford - Pint Store Blues
DYEAR=1999
DGENRE=Blues
TTITLE0=What is Wrong
TTITLE1=The Shinin Moon
TTITLE2=Vaseline Machine
TTITLE3=Kind Hearted Woman
TTITLE4=Highway
TTITLE5=Goin Back Home
TTITLE6=Little Sister Boogie
TTITLE7=Mean Ol' World
TTITLE8=Shake it Baby
TTITLE9=Honey Bee
TTITLE10=Crawlin King Snake
EXTD=
EXTT0=
EXTT1=
EXTT2=
EXTT3=
EXTT4=
EXTT5=
EXTT6=
EXTT7=
EXTT8=
EXTT9=
EXTT10=
PLAYORDER=
